<svg width="29" height="20" viewBox="0 0 29 20" fill="none" xmlns="http://www.w3.org/2000/svg">
<g id="behance">
<path fill-rule="evenodd" clip-rule="evenodd" d="M0.313965 18.9393V0.615234H8.78487C11.5057 0.615234 13.7114 2.82093 13.7114 5.5418C13.7114 7.27078 13.1798 8.3418 11.2304 9.44054C13.5631 10.5034 14.211 11.9765 14.211 14.0313C14.211 16.8109 11.7417 18.9393 8.96206 18.9393H0.313965ZM3.89848 3.64847V8.05472H8.0938C8.0938 8.05472 10.1329 8.05472 10.1329 5.85159C10.1329 3.64847 8.0938 3.64847 8.0938 3.64847H3.89848ZM3.89848 15.836V11.0782H8.39848C9.12505 11.0782 10.6485 11.4532 10.6485 13.7032C10.6485 15.3719 9.14848 15.8203 8.39848 15.836H3.89848Z" fill="white"/>
<path fill-rule="evenodd" clip-rule="evenodd" d="M21.875 5.66409C19.2969 5.66409 15.4766 7.51566 15.4766 12.4375C15.4766 15.4345 17.1172 19.2813 22.0391 19.2813C25.9766 19.2813 27.7891 16.3907 28.2032 14.9453H24.5C24.3125 15.6016 23.586 16.3282 22.0391 16.3282C19.7891 16.3282 18.9922 14.4063 18.875 13.4453H28.2032V12.4375C28.2032 7.51566 24.4532 5.66409 21.875 5.66409ZM21.875 8.47659C19.775 8.47659 19 10.211 18.875 11.0782H24.5C24.5 10.211 23.975 8.47659 21.875 8.47659Z" fill="white"/>
<path d="M17.3985 1.65628V3.92972H26.2344V1.65628H17.3985Z" fill="white"/>
</g>
</svg>
