<svg width="42" height="42" viewBox="0 0 42 42" fill="none" xmlns="http://www.w3.org/2000/svg">
<g id="Group 5">
<path id="vector" d="M42.0021 21.4664C42.0021 19.7397 41.8591 18.4797 41.5497 17.1731H21.4307V24.9663H33.2401C33.0021 26.9031 31.7164 29.8197 28.8592 31.7796L28.8191 32.0405L35.1804 36.87L35.6211 36.9131C39.6686 33.2497 42.0021 27.8597 42.0021 21.4664Z" fill="#4285F4"/>
<path id="vector_2" d="M21.4295 42C27.2151 42 32.0721 40.1333 35.6199 36.9133L28.8579 31.7798C27.0485 33.0165 24.6198 33.8798 21.4295 33.8798C15.7628 33.8798 10.9534 30.2166 9.23894 25.1532L8.98764 25.1741L2.37312 30.1908L2.28662 30.4265C5.81038 37.2865 13.0485 42 21.4295 42Z" fill="#34A853"/>
<path id="vector_3" d="M9.24019 25.1534C8.78782 23.8468 8.52602 22.4467 8.52602 21.0001C8.52602 19.5533 8.78782 18.1534 9.21639 16.8467L9.20441 16.5685L2.50698 11.4712L2.28785 11.5733C0.835539 14.42 0.00219727 17.6168 0.00219727 21.0001C0.00219727 24.3834 0.835539 27.58 2.28785 30.4267L9.24019 25.1534Z" fill="#FBBC05"/>
<path id="vector_4" d="M21.4296 8.11994C25.4533 8.11994 28.1676 9.82327 29.7152 11.2467L35.7628 5.46C32.0487 2.07668 27.2152 0 21.4296 0C13.0485 0 5.8104 4.7133 2.28662 11.5732L9.21518 16.8466C10.9534 11.7833 15.7629 8.11994 21.4296 8.11994Z" fill="#EB4335"/>
</g>
</svg>
