<svg width="64" height="64" viewBox="0 0 64 64" fill="none" xmlns="http://www.w3.org/2000/svg">
<g id="Group 6795">
<circle id="Ellipse 1321" cx="32" cy="32" r="32" fill="#FF004D"/>
<path id="Intersect" fill-rule="evenodd" clip-rule="evenodd" d="M63.9089 34.435C63.9694 33.6312 64.0002 32.8192 64.0002 32C64.0002 31.8367 63.999 31.6737 63.9965 31.511C63.2913 32.1415 62.5145 32.822 61.6661 33.5524C59.5997 35.3033 57.4484 36.8 55.2122 38.0426C52.9759 39.2852 51.0086 39.6946 49.3103 39.271C48.6875 39.0169 48.1921 38.5368 47.8242 37.8308C47.4845 37.1248 47.1873 36.3905 46.9325 35.6281C46.791 35.2045 46.6494 34.8232 46.5079 34.4843L46.1682 33.6371C45.8569 32.5923 45.3756 31.618 44.7246 30.7143C43.8471 29.7541 42.8847 29.3447 41.8373 29.4859C40.8183 29.5988 39.7993 29.9942 38.7802 30.6719C37.7895 31.3215 36.9261 31.9992 36.1902 32.7052C35.4825 33.3265 34.8032 33.976 34.1521 34.6538C34.0955 34.7103 34.0389 34.7526 33.9823 34.7809C33.954 34.7809 33.9256 34.7667 33.8973 34.7385C33.869 34.7103 33.8407 34.6961 33.8124 34.6961H33.77C33.77 34.6679 33.7558 34.6538 33.7275 34.6538H33.685H33.6426C33.6426 34.6255 33.6284 34.6114 33.6001 34.6114L33.5152 34.5267C33.5718 34.0184 33.6426 33.5101 33.7275 33.0017C33.8124 32.6064 33.8832 32.211 33.9398 31.8157C34.0247 31.3073 34.1379 30.6861 34.2795 29.9518C34.421 29.2176 34.5342 28.5963 34.6192 28.088C34.6192 27.9468 34.6333 27.7915 34.6616 27.622C34.8598 26.5207 35.0438 25.4052 35.2136 24.2756C35.2419 24.0779 35.2702 23.8661 35.2985 23.6402C35.4684 22.5953 35.5108 21.4939 35.4259 20.3361C35.3976 20.1949 35.341 19.9831 35.2561 19.7007C34.9447 18.9382 34.4069 18.444 33.6426 18.2181C33.3595 18.1616 33.0906 18.1334 32.8358 18.1334C31.9017 18.1616 31.0808 18.4722 30.3732 19.0653C29.6938 19.6583 29.1277 20.2937 28.6748 20.9715L28.42 21.3104L28.0803 21.8187C25.4195 25.7158 23.0276 29.7541 20.9046 33.9337C20.2536 35.2045 19.5884 36.4611 18.909 37.7037C18.2863 38.8051 17.6635 39.8782 17.0408 40.9231L16.786 41.3467C17.0125 39.2287 17.3663 37.1389 17.8475 35.0774C18.3854 32.6205 18.9939 30.1919 19.6733 27.7915L20.013 26.7748C20.4942 24.9675 21.1169 23.2448 21.8812 21.6069C21.9095 21.6069 21.9237 21.5928 21.9237 21.5645L21.9661 21.5222C22.2775 21.1833 22.4473 20.802 22.4757 20.3784C22.504 19.9266 22.3766 19.5171 22.0935 19.15C21.6689 18.6417 21.1594 18.4158 20.565 18.4722C19.9705 18.5287 19.4752 18.8111 19.0789 19.3194C18.3712 20.3643 17.8192 21.4939 17.4229 22.7082C17.3946 22.8212 17.3522 22.9483 17.2956 23.0895C16.4464 25.5464 15.7387 28.0315 15.1726 30.5449C15.1726 30.6296 15.1584 30.7143 15.1301 30.799C14.6489 32.8041 14.2101 35.2892 13.8139 38.2544C13.4176 41.1914 13.5732 43.5494 14.2809 45.3285C14.3658 45.4697 14.4649 45.5968 14.5781 45.7098C14.6914 45.8227 14.8329 45.9216 15.0027 46.0063C15.0593 46.0345 15.1301 46.0628 15.215 46.091C15.2999 46.1192 15.3707 46.1334 15.4273 46.1334H15.8095C15.8661 46.1051 15.9227 46.091 15.9793 46.091C16.0359 46.0628 16.0784 46.0486 16.1067 46.0486C16.4464 45.9074 16.7294 45.7098 16.9559 45.4556C17.1823 45.2014 17.3805 44.9473 17.5503 44.6931C18.0598 43.9024 18.5269 43.0976 18.9515 42.2786L19.0364 42.1092C19.4044 41.4314 19.7582 40.7395 20.0979 40.0335C20.3244 39.6099 20.5508 39.1722 20.7773 38.7204C21.5415 37.2519 22.3907 35.6422 23.3248 33.8913C23.6928 33.1853 24.0325 32.5499 24.3439 31.9851C24.5986 31.4768 24.8676 30.9685 25.1506 30.4601C25.9998 28.7093 26.9764 27.0149 28.0803 25.3769C28.1087 25.3205 28.1511 25.264 28.2077 25.2075C28.5191 24.7557 28.8588 24.3179 29.2268 23.8943C29.3117 23.8096 29.3824 23.7108 29.4391 23.5978C29.7504 23.2024 30.1326 22.8636 30.5855 22.5812C30.6987 22.5247 30.7978 22.5247 30.8827 22.5812C30.9959 22.6376 31.0384 22.7365 31.0101 22.8777C30.8685 23.9226 30.7129 24.9675 30.543 26.0123C30.2316 27.7067 29.9769 29.4294 29.7787 31.1803C29.6089 32.4511 29.4815 33.7501 29.3966 35.0774C29.3966 35.1339 29.3824 35.1903 29.3541 35.2468C29.2692 36.2635 29.2834 37.3225 29.3966 38.4238C29.4249 38.6498 29.5098 38.9463 29.6514 39.3134C29.7363 39.5111 29.892 39.7511 30.1184 40.0335C30.4864 40.4571 30.9535 40.7113 31.5196 40.796C32.0857 40.8525 32.6094 40.7536 33.0906 40.4995C34.0247 39.9064 34.8315 39.1863 35.5108 38.3391C35.6523 38.1697 35.808 37.9861 35.9779 37.7884C36.2326 37.5343 36.544 37.1954 36.912 36.7718C37.7329 35.7834 38.6528 34.7809 39.6719 33.7642C40.7192 32.7476 41.625 32.211 42.3893 32.1545C42.4176 32.1545 42.4459 32.1687 42.4742 32.1969C42.8705 32.4511 43.196 32.8605 43.4508 33.4253C43.5074 33.5101 43.5499 33.5948 43.5782 33.6795C43.748 33.9901 43.9037 34.3149 44.0452 34.6538L44.3849 35.4163C44.9227 36.7153 45.7295 37.8731 46.8051 38.8898C47.994 39.8782 49.3386 40.3442 50.8388 40.2877C52.3391 40.2312 53.7544 39.9206 55.0848 39.3558C57.0946 38.5086 59.0052 37.5201 60.8169 36.3905C61.8566 35.7522 62.8873 35.1004 63.9089 34.435Z" fill="white"/>
</g>
</svg>
