<svg width="100" height="100" viewBox="0 0 100 100" fill="none" xmlns="http://www.w3.org/2000/svg">
<path id="Logo Mark" fill-rule="evenodd" clip-rule="evenodd" d="M50.0352 0C76.7708 0 98.6087 20.9543 100 47.3247C95.3596 51.8112 90.3142 55.7618 84.4946 58.6974C81.7561 60.0813 78.9708 60.9961 75.7628 58.932C75.4951 58.2999 75.2119 57.5966 74.9143 56.8575L74.9142 56.8572C74.6118 56.1061 74.2944 55.3181 73.9632 54.53C73.7336 53.9901 73.5095 53.4466 73.2853 52.9027C72.623 51.2964 71.959 49.6861 71.1465 48.15C69.3079 44.655 66.5459 43.6542 63.0485 45.4369C61.0379 46.5878 59.1039 47.8676 57.2586 49.2681C56.5636 49.7472 55.8871 50.2486 54.9532 50.9408C54.5309 51.2538 54.056 51.6058 53.5029 52.0124C53.6998 50.682 53.8688 49.4436 54.029 48.2703C54.3779 45.7131 54.6848 43.4649 55.146 41.2461C55.8388 38.3625 56.1907 35.4077 56.1945 32.4422C56.1398 30.5266 55.6937 28.8847 54.1915 27.6884C49.9899 26.672 47.2593 28.314 44.912 31.7151C40.3263 38.2956 36.2235 45.1993 32.6358 52.3721C31.8051 54.0854 30.8477 55.7372 29.8916 57.3866L29.8916 57.3867C29.4428 58.1609 28.9943 58.9346 28.5594 59.7138L27.777 59.4011C28.0403 58.2665 28.3007 57.1274 28.5613 55.9871L28.5613 55.9869C28.897 54.5184 29.2331 53.0479 29.5766 51.5824C31.0397 45.304 32.5029 39.0412 35.2726 33.1615C36.5636 30.4172 36.1489 29.5024 33.1914 27.5555C30.8754 27.6103 29.7487 29.3851 28.9663 31.074C27.6584 34.0097 26.5398 37.026 25.6175 40.1045C23.7288 46.2564 22.4628 52.5822 21.8385 58.9867C21.4316 62.9039 21.009 67.0009 23.3563 70.9102H27.112C27.4641 70.34 27.823 69.787 28.1765 69.2421C28.8362 68.2254 29.4775 67.2371 30.0225 66.219C31.6042 63.2256 33.1603 60.2202 34.7166 57.2146L34.7169 57.214C36.7173 53.3506 38.7179 49.487 40.773 45.648C42.7003 41.7699 45.2007 38.2037 48.1903 35.0693C48.1477 35.5698 48.1195 36.0006 48.0945 36.384V36.3841C48.0461 37.1267 48.0092 37.692 47.9008 38.2437C46.5569 44.5457 45.8804 50.9716 45.8822 57.4151C45.9291 61.0821 46.5785 61.8483 50.5767 63.3261C51.5783 62.8956 52.522 62.3414 53.3856 61.6763C55.4582 59.711 57.4101 57.6222 59.2303 55.4214C61.133 52.8778 63.699 50.9059 66.6476 49.7215C66.7056 49.8175 66.7666 49.9172 66.8298 50.0204C67.065 50.4047 67.3286 50.8352 67.563 51.2853C67.934 51.9978 68.2932 52.7221 68.6533 53.4483L68.6537 53.449L68.6538 53.4492C69.2656 54.683 69.8802 55.9222 70.5597 57.118C73.173 61.7232 77.7658 63.631 82.789 61.95C85.7004 60.911 88.5323 59.662 91.2625 58.2127C93.2913 57.172 95.2903 56.0161 97.4443 54.7705C98.258 54.3 99.0938 53.8167 99.9617 53.322C98.2508 79.3875 76.5518 100 50.0352 100C22.4015 100 0 77.6142 0 50C0 22.3858 22.4015 0 50.0352 0Z" fill="white"/>
</svg>
